<svg width="220" height="162" viewBox="0 0 220 162" fill="none" xmlns="http://www.w3.org/2000/svg">
<g filter="url(#filter0_d_5873_13289)">
<g clip-path="url(#clip0_5873_13289)">
<rect x="16.0145" y="10.3623" width="195" height="137.514" rx="15.7803" fill="#F5F5F5" style="fill:#F5F5F5;fill:color(display-p3 0.9625 0.9625 0.9625);fill-opacity:1;"/>
<rect width="195" height="45.0867" transform="translate(16.0145 10.3623)" fill="white" style="fill:white;fill-opacity:1;"/>
<path d="M35.1763 37.9779H39.8259V39.0346C39.8259 39.6512 39.581 40.2425 39.145 40.6785C38.709 41.1145 38.1177 41.3594 37.5011 41.3594C36.8846 41.3594 36.2932 41.1145 35.8573 40.6785C35.4213 40.2425 35.1763 39.6512 35.1763 39.0346V37.9779ZM38.6069 34.5964L38.6449 34.4848C39.2933 32.7045 39.4032 32.3731 39.4032 32.0603C39.4032 31.4263 39.2316 30.6713 38.9569 30.1387C38.7523 29.7414 38.6086 29.6256 38.5579 29.6256C37.4758 29.6256 36.4444 30.7787 36.4444 32.0603C36.4444 32.871 36.5078 33.5591 36.6363 34.3918L36.6684 34.5964H38.6069ZM38.5579 27.9349C40.2486 27.9349 41.094 30.3695 41.094 32.0603C41.094 32.9057 40.6713 33.751 40.2486 35.0191L39.8259 36.2872H35.1763C35.1763 35.4418 34.7537 34.1737 34.7537 32.0603C34.7537 29.9468 36.4427 27.9349 38.5579 27.9349ZM48.748 34.6793L48.5646 35.7199C48.4575 36.3272 48.1136 36.8671 47.6085 37.2207C47.1034 37.5744 46.4785 37.713 45.8712 37.606C45.2639 37.4989 44.7241 37.155 44.3704 36.6499C44.0167 36.1448 43.8781 35.5199 43.9852 34.9126L44.1695 33.8728L48.748 34.6793ZM47.8604 31.0898C47.9999 30.6671 48.1148 30.3332 48.1165 30.329C48.2873 29.7727 48.4217 29.2274 48.5265 28.6314C48.7489 27.3701 47.9331 26.0556 46.8679 25.8671C46.818 25.8586 46.6566 25.9474 46.386 26.3024C46.0225 26.7801 45.7233 27.4944 45.6125 28.1175C45.5635 28.3964 45.5711 28.4598 45.8408 30.0305C45.8788 30.247 45.9101 30.4414 45.9388 30.6367L45.9557 30.7533L47.8612 31.0898H47.8604ZM47.1621 24.2025C49.2451 24.5694 50.5588 26.8435 50.1919 28.9248C49.825 31.0069 49.1885 32.182 49.0422 33.0147L44.4628 32.2074L44.2667 30.8852C44.0705 29.563 43.8017 28.6568 43.948 27.825C44.2413 26.1596 45.4967 23.9092 47.1621 24.2025Z" fill="#525252" style="fill:#525252;fill:color(display-p3 0.3220 0.3220 0.3220);fill-opacity:1;"/>
<path d="M71.4659 30.0483C71.4104 29.5557 71.1815 29.1741 70.7791 28.9035C70.3767 28.6295 69.8702 28.4924 69.2596 28.4924C68.8225 28.4924 68.4444 28.5618 68.1253 28.7006C67.8061 28.8359 67.5581 29.0232 67.3812 29.2626C67.2077 29.4984 67.121 29.7673 67.121 30.0691C67.121 30.3223 67.18 30.5409 67.2979 30.7247C67.4193 30.9086 67.5772 31.063 67.7714 31.1879C67.9692 31.3093 68.1808 31.4116 68.4063 31.4949C68.6317 31.5747 68.8486 31.6406 69.0567 31.6926L70.0974 31.9632C70.4374 32.0464 70.786 32.1592 71.1433 32.3014C71.5006 32.4437 71.8319 32.631 72.1372 32.8634C72.4425 33.0958 72.6888 33.3838 72.8761 33.7272C73.0669 34.0706 73.1623 34.4817 73.1623 34.9604C73.1623 35.564 73.0062 36.1 72.694 36.5683C72.3852 37.0366 71.936 37.4061 71.3463 37.6767C70.76 37.9473 70.0506 38.0826 69.218 38.0826C68.4201 38.0826 67.7298 37.9559 67.147 37.7027C66.5642 37.4495 66.108 37.0904 65.7785 36.6256C65.4489 36.1572 65.2668 35.6022 65.2321 34.9604H66.8452C66.8764 35.3455 67.0013 35.6664 67.2199 35.9231C67.4419 36.1763 67.7246 36.3654 68.068 36.4903C68.4149 36.6117 68.7948 36.6724 69.2076 36.6724C69.662 36.6724 70.0662 36.6013 70.42 36.4591C70.7773 36.3134 71.0583 36.1122 71.263 35.8554C71.4677 35.5953 71.57 35.2917 71.57 34.9448C71.57 34.6291 71.4798 34.3707 71.2994 34.1695C71.1225 33.9683 70.8814 33.8018 70.5761 33.67C70.2743 33.5381 69.9326 33.4219 69.551 33.3213L68.2918 32.9779C67.4384 32.7455 66.7619 32.4038 66.2624 31.9528C65.7663 31.5018 65.5183 30.9051 65.5183 30.1628C65.5183 29.5487 65.6848 29.0128 66.0178 28.5549C66.3509 28.097 66.8018 27.7414 67.3708 27.4881C67.9397 27.2314 68.5814 27.1031 69.2961 27.1031C70.0176 27.1031 70.6542 27.2297 71.2058 27.4829C71.7608 27.7362 72.1979 28.0848 72.5171 28.5289C72.8362 28.9694 73.0027 29.4759 73.0166 30.0483H71.4659ZM78.9152 29.913V31.1618H74.5494V29.913H78.9152ZM75.7202 27.9981H77.2761V35.5588C77.2761 35.8606 77.3212 36.0879 77.4114 36.2405C77.5016 36.3897 77.6178 36.492 77.76 36.5475C77.9057 36.5995 78.0636 36.6256 78.2335 36.6256C78.3584 36.6256 78.4677 36.6169 78.5614 36.5995C78.655 36.5822 78.7279 36.5683 78.7799 36.5579L79.0609 37.8432C78.9707 37.8779 78.8423 37.9126 78.6758 37.9473C78.5093 37.9854 78.3012 38.0062 78.0514 38.0097C77.6421 38.0166 77.2605 37.9438 76.9066 37.7912C76.5528 37.6385 76.2666 37.4026 76.048 37.0835C75.8295 36.7643 75.7202 36.3637 75.7202 35.8815V27.9981ZM83.1877 38.0826C82.6812 38.0826 82.2233 37.9889 81.814 37.8016C81.4046 37.6108 81.0803 37.335 80.8409 36.9742C80.605 36.6134 80.487 36.1711 80.487 35.6473C80.487 35.1963 80.5738 34.8251 80.7472 34.5337C80.9207 34.2423 81.1548 34.0117 81.4497 33.8417C81.7446 33.6717 82.0741 33.5433 82.4384 33.4566C82.8026 33.3699 83.1738 33.304 83.5519 33.2589C84.0307 33.2034 84.4192 33.1583 84.7175 33.1236C85.0159 33.0854 85.2327 33.0247 85.368 32.9415C85.5033 32.8582 85.5709 32.7229 85.5709 32.5356V32.4992C85.5709 32.0447 85.4426 31.6926 85.1859 31.4428C84.9326 31.1931 84.5545 31.0682 84.0515 31.0682C83.5277 31.0682 83.1148 31.1844 82.813 31.4168C82.5147 31.6458 82.3083 31.9007 82.1938 32.1817L80.7316 31.8487C80.9051 31.363 81.1583 30.971 81.4913 30.6727C81.8278 30.3709 82.2146 30.1524 82.6517 30.0171C83.0888 29.8783 83.5485 29.8089 84.0307 29.8089C84.3498 29.8089 84.688 29.8471 85.0454 29.9234C85.4061 29.9963 85.7426 30.1315 86.0548 30.3293C86.3705 30.527 86.629 30.8097 86.8302 31.1775C87.0314 31.5417 87.132 32.0152 87.132 32.598V37.9056H85.6125V36.8129H85.5501C85.4495 37.0141 85.2986 37.2118 85.0974 37.4061C84.8962 37.6004 84.6377 37.7617 84.3221 37.89C84.0064 38.0184 83.6283 38.0826 83.1877 38.0826ZM83.5259 36.8337C83.9561 36.8337 84.3238 36.7487 84.6291 36.5787C84.9378 36.4088 85.172 36.1867 85.3315 35.9127C85.4946 35.6352 85.5761 35.3386 85.5761 35.0229V33.9926C85.5206 34.0481 85.4131 34.1001 85.2535 34.1487C85.0974 34.1938 84.9187 34.2337 84.7175 34.2684C84.5163 34.2996 84.3203 34.3291 84.1295 34.3568C83.9387 34.3811 83.7792 34.4019 83.6508 34.4193C83.349 34.4574 83.0732 34.5216 82.8234 34.6118C82.5771 34.702 82.3794 34.8321 82.2302 35.0021C82.0845 35.1686 82.0117 35.3906 82.0117 35.6681C82.0117 36.0532 82.1539 36.3446 82.4384 36.5423C82.7228 36.7366 83.0854 36.8337 83.5259 36.8337ZM93.2335 29.913V31.1618H88.7168V29.913H93.2335ZM89.9553 37.9056V28.9868C89.9553 28.4872 90.0646 28.0727 90.2831 27.7431C90.5017 27.4101 90.7913 27.1621 91.1521 26.999C91.5129 26.8325 91.9049 26.7492 92.3281 26.7492C92.6403 26.7492 92.9074 26.7753 93.1294 26.8273C93.3515 26.8759 93.5162 26.921 93.6238 26.9626L93.2595 28.2218C93.1867 28.201 93.093 28.1767 92.9785 28.149C92.8641 28.1178 92.7253 28.1022 92.5623 28.1022C92.1841 28.1022 91.9135 28.1958 91.7505 28.3832C91.5909 28.5705 91.5111 28.8411 91.5111 29.1949V37.9056H89.9553ZM98.868 29.913V31.1618H94.3514V29.913H98.868ZM95.5898 37.9056V28.9868C95.5898 28.4872 95.6991 28.0727 95.9176 27.7431C96.1362 27.4101 96.4258 27.1621 96.7866 26.999C97.1474 26.8325 97.5394 26.7492 97.9626 26.7492C98.2748 26.7492 98.5419 26.7753 98.764 26.8273C98.986 26.8759 99.1508 26.921 99.2583 26.9626L98.894 28.2218C98.8212 28.201 98.7275 28.1767 98.6131 28.149C98.4986 28.1178 98.3598 28.1022 98.1968 28.1022C97.8186 28.1022 97.5481 28.1958 97.385 28.3832C97.2254 28.5705 97.1457 28.8411 97.1457 29.1949V37.9056H95.5898Z" fill="#525252" style="fill:#525252;fill:color(display-p3 0.3220 0.3220 0.3220);fill-opacity:1;"/>
<rect width="195" height="45.0867" transform="translate(16.0145 56.5762)" fill="white" style="fill:white;fill-opacity:1;"/>
<path d="M47.8571 85.8826H36.0218V86.728C36.0218 86.9522 35.9327 87.1672 35.7742 87.3257C35.6157 87.4843 35.4006 87.5733 35.1764 87.5733H34.331C34.1068 87.5733 33.8918 87.4843 33.7333 87.3257C33.5747 87.1672 33.4857 86.9522 33.4857 86.728V80.3876L32.4349 80.1256C32.2521 80.0798 32.0898 79.9742 31.9739 79.8256C31.8579 79.6771 31.7949 79.494 31.7949 79.3056V78.6969C31.7949 78.5848 31.8395 78.4773 31.9187 78.398C31.998 78.3187 32.1055 78.2742 32.2176 78.2742H33.4857L35.5822 73.3812C35.7127 73.0768 35.9296 72.8175 36.2061 72.6354C36.4827 72.4532 36.8066 72.3563 37.1377 72.3566H46.7412C47.072 72.3566 47.3955 72.4537 47.6717 72.6358C47.9479 72.8179 48.1646 73.0771 48.295 73.3812L50.3932 78.2742H51.6612C51.7734 78.2742 51.8809 78.3187 51.9601 78.398C52.0394 78.4773 52.0839 78.5848 52.0839 78.6969V79.3056C52.0839 79.494 52.021 79.6771 51.905 79.8256C51.7891 79.9742 51.6268 80.0798 51.444 80.1256L50.3932 80.3876V86.728C50.3932 86.9522 50.3041 87.1672 50.1456 87.3257C49.987 87.4843 49.772 87.5733 49.5478 87.5733H48.7024C48.4782 87.5733 48.2632 87.4843 48.1047 87.3257C47.9461 87.1672 47.8571 86.9522 47.8571 86.728V85.8826ZM48.7024 84.1918V79.9649H35.1764V84.1918H48.7024ZM36.425 78.2742H47.4538C47.5919 78.2741 47.7278 78.2402 47.8498 78.1754C47.9717 78.1107 48.076 78.017 48.1534 77.9027C48.2308 77.7883 48.279 77.6568 48.2938 77.5195C48.3086 77.3822 48.2895 77.2434 48.2383 77.1152L47.0117 74.0473H36.8672L35.6405 77.1152C35.5893 77.2434 35.5703 77.3822 35.5851 77.5195C35.5999 77.6568 35.6481 77.7883 35.7255 77.9027C35.8029 78.017 35.9071 78.1107 36.0291 78.1754C36.151 78.2402 36.287 78.2741 36.425 78.2742ZM36.0218 80.8103C37.9805 80.8103 39.301 81.4486 39.9832 82.7243C40.0177 82.7887 40.0349 82.8609 40.0332 82.934C40.0314 83.007 40.0107 83.0783 39.9732 83.141C39.9356 83.2037 39.8825 83.2556 39.8189 83.2916C39.7553 83.3276 39.6835 83.3465 39.6104 83.3465H36.8672C36.643 83.3465 36.4279 83.2574 36.2694 83.0988C36.1109 82.9403 36.0218 82.7253 36.0218 82.5011V80.8103ZM47.8571 80.8103V82.5011C47.8571 82.7253 47.768 82.9403 47.6095 83.0988C47.4509 83.2574 47.2359 83.3465 47.0117 83.3465H44.2684C44.1954 83.3463 44.1237 83.3273 44.0603 83.2913C43.9968 83.2552 43.9438 83.2033 43.9063 83.1407C43.8689 83.078 43.8483 83.0067 43.8465 82.9338C43.8448 82.8608 43.862 82.7886 43.8965 82.7243C44.577 81.4477 45.8975 80.8103 47.8571 80.8103Z" fill="#525252" style="fill:#525252;fill:color(display-p3 0.3220 0.3220 0.3220);fill-opacity:1;"/>
<path d="M69.1035 84.1195H65.6536V73.4626H69.2128C70.257 73.4626 71.1537 73.676 71.903 74.1027C72.6524 74.5259 73.2265 75.1347 73.6254 75.9291C74.0278 76.7201 74.229 77.6688 74.229 78.7755C74.229 79.8856 74.0261 80.8395 73.6202 81.6374C73.2178 82.4353 72.635 83.0493 71.8718 83.4795C71.1086 83.9062 70.1859 84.1195 69.1035 84.1195ZM67.2615 82.7145H69.0151C69.8268 82.7145 70.5016 82.5619 71.0393 82.2566C71.577 81.9479 71.9794 81.5021 72.2465 80.9193C72.5136 80.3331 72.6471 79.6184 72.6471 78.7755C72.6471 77.9394 72.5136 77.23 72.2465 76.6472C71.9828 76.0644 71.5891 75.6221 71.0653 75.3203C70.5414 75.0185 69.891 74.8676 69.1139 74.8676H67.2615V82.7145ZM76.329 84.1195V76.1269H77.8849V84.1195H76.329ZM77.1148 74.8936C76.8442 74.8936 76.6118 74.8034 76.4175 74.623C76.2267 74.4392 76.1313 74.2206 76.1313 73.9674C76.1313 73.7107 76.2267 73.4921 76.4175 73.3117C76.6118 73.1279 76.8442 73.036 77.1148 73.036C77.3854 73.036 77.616 73.1279 77.8068 73.3117C78.0011 73.4921 78.0982 73.7107 78.0982 73.9674C78.0982 74.2206 78.0011 74.4392 77.8068 74.623C77.616 74.8034 77.3854 74.8936 77.1148 74.8936ZM86.1927 78.0782L84.7826 78.328C84.7236 78.1476 84.6299 77.9759 84.5016 77.8128C84.3767 77.6498 84.2067 77.5162 83.9916 77.4121C83.7766 77.3081 83.5077 77.256 83.1851 77.256C82.7445 77.256 82.3768 77.3549 82.0819 77.5526C81.7871 77.7469 81.6396 77.9984 81.6396 78.3071C81.6396 78.5743 81.7385 78.7893 81.9362 78.9524C82.134 79.1154 82.4531 79.249 82.8937 79.3531L84.1634 79.6445C84.8988 79.8144 85.4469 80.0764 85.8077 80.4302C86.1685 80.784 86.3488 81.2437 86.3488 81.8091C86.3488 82.2879 86.2101 82.7145 85.9326 83.0892C85.6585 83.4604 85.2752 83.7518 84.7826 83.9634C84.2934 84.175 83.7263 84.2808 83.081 84.2808C82.186 84.2808 81.4558 84.09 80.8903 83.7084C80.3249 83.3234 79.978 82.777 79.8496 82.0693L81.3534 81.8404C81.4471 82.2324 81.6396 82.529 81.931 82.7302C82.2224 82.9279 82.6023 83.0268 83.0706 83.0268C83.5806 83.0268 83.9882 82.921 84.2934 82.7093C84.5987 82.4943 84.7514 82.2324 84.7514 81.9236C84.7514 81.6738 84.6577 81.464 84.4704 81.294C84.2865 81.124 84.0038 80.9956 83.6222 80.9089L82.2693 80.6123C81.5234 80.4423 80.9718 80.1718 80.6145 79.8006C80.2607 79.4294 80.0838 78.9593 80.0838 78.3904C80.0838 77.9186 80.2156 77.5058 80.4792 77.152C80.7429 76.7981 81.1071 76.5223 81.572 76.3246C82.0368 76.1234 82.5693 76.0228 83.1695 76.0228C84.0333 76.0228 84.7132 76.2101 85.2093 76.5848C85.7053 76.956 86.0332 77.4538 86.1927 78.0782ZM88.2849 87.1167V76.1269H89.8044V77.4225H89.9345C90.0247 77.256 90.1547 77.0635 90.3247 76.845C90.4947 76.6264 90.7306 76.4356 91.0324 76.2726C91.3342 76.106 91.7332 76.0228 92.2292 76.0228C92.8745 76.0228 93.4503 76.1858 93.9568 76.5119C94.4633 76.838 94.8605 77.3081 95.1484 77.9221C95.4398 78.5361 95.5855 79.275 95.5855 80.1388C95.5855 81.0026 95.4415 81.7432 95.1536 82.3607C94.8657 82.9747 94.4702 83.4482 93.9672 83.7813C93.4642 84.1108 92.8901 84.2756 92.2448 84.2756C91.7592 84.2756 91.362 84.1941 91.0532 84.031C90.748 83.868 90.5086 83.6772 90.3351 83.4587C90.1617 83.2401 90.0281 83.0458 89.9345 82.8759H89.8408V87.1167H88.2849ZM89.8096 80.1232C89.8096 80.6852 89.8911 81.1778 90.0541 81.601C90.2172 82.0242 90.4531 82.3555 90.7618 82.5949C91.0706 82.8308 91.4487 82.9487 91.8962 82.9487C92.3611 82.9487 92.7496 82.8256 93.0618 82.5793C93.374 82.3295 93.6099 81.9913 93.7695 81.5646C93.9325 81.1379 94.014 80.6574 94.014 80.1232C94.014 79.5959 93.9343 79.1224 93.7747 78.7026C93.6186 78.2829 93.3827 77.9516 93.067 77.7087C92.7548 77.4659 92.3645 77.3445 91.8962 77.3445C91.4452 77.3445 91.0636 77.4607 90.7514 77.6931C90.4427 77.9256 90.2085 78.2499 90.0489 78.6662C89.8894 79.0825 89.8096 79.5681 89.8096 80.1232ZM99.8801 84.2964C99.3736 84.2964 98.9157 84.2028 98.5064 84.0154C98.097 83.8246 97.7727 83.5489 97.5333 83.1881C97.2974 82.8273 97.1795 82.385 97.1795 81.8612C97.1795 81.4102 97.2662 81.039 97.4397 80.7476C97.6131 80.4562 97.8473 80.2255 98.1421 80.0555C98.437 79.8856 98.7666 79.7572 99.1308 79.6705C99.4951 79.5838 99.8662 79.5178 100.244 79.4727C100.723 79.4172 101.112 79.3721 101.41 79.3374C101.708 79.2993 101.925 79.2386 102.06 79.1553C102.196 79.0721 102.263 78.9368 102.263 78.7494V78.713C102.263 78.2586 102.135 77.9065 101.878 77.6567C101.625 77.4069 101.247 77.282 100.744 77.282C100.22 77.282 99.8073 77.3983 99.5055 77.6307C99.2071 77.8596 99.0007 78.1146 98.8862 78.3956L97.424 78.0626C97.5975 77.5769 97.8507 77.1849 98.1838 76.8866C98.5203 76.5848 98.9071 76.3662 99.3442 76.2309C99.7813 76.0922 100.241 76.0228 100.723 76.0228C101.042 76.0228 101.38 76.061 101.738 76.1373C102.099 76.2101 102.435 76.3454 102.747 76.5431C103.063 76.7409 103.321 77.0236 103.523 77.3913C103.724 77.7556 103.824 78.2291 103.824 78.8119V84.1195H102.305V83.0268H102.243C102.142 83.228 101.991 83.4257 101.79 83.62C101.589 83.8142 101.33 83.9755 101.014 84.1039C100.699 84.2323 100.321 84.2964 99.8801 84.2964ZM100.218 83.0476C100.649 83.0476 101.016 82.9626 101.322 82.7926C101.63 82.6226 101.864 82.4006 102.024 82.1265C102.187 81.849 102.269 81.5524 102.269 81.2367V80.2064C102.213 80.2619 102.106 80.314 101.946 80.3625C101.79 80.4076 101.611 80.4475 101.41 80.4822C101.209 80.5135 101.013 80.5429 100.822 80.5707C100.631 80.595 100.472 80.6158 100.343 80.6331C100.041 80.6713 99.7656 80.7355 99.5159 80.8257C99.2696 80.9159 99.0718 81.0459 98.9227 81.2159C98.777 81.3824 98.7041 81.6045 98.7041 81.882C98.7041 82.267 98.8464 82.5584 99.1308 82.7562C99.4153 82.9504 99.7778 83.0476 100.218 83.0476ZM109.853 76.1269V77.3757H105.487V76.1269H109.853ZM106.658 74.212H108.214V81.7727C108.214 82.0745 108.259 82.3017 108.349 82.4544C108.439 82.6035 108.556 82.7059 108.698 82.7614C108.844 82.8134 109.001 82.8394 109.171 82.8394C109.296 82.8394 109.406 82.8308 109.499 82.8134C109.593 82.7961 109.666 82.7822 109.718 82.7718L109.999 84.0571C109.909 84.0918 109.78 84.1264 109.614 84.1611C109.447 84.1993 109.239 84.2201 108.989 84.2236C108.58 84.2305 108.198 84.1577 107.845 84.005C107.491 83.8524 107.204 83.6165 106.986 83.2973C106.767 82.9782 106.658 82.5775 106.658 82.0953V74.212ZM115.08 84.2808C114.307 84.2808 113.641 84.1056 113.082 83.7553C112.527 83.4014 112.101 82.914 111.802 82.2931C111.504 81.6721 111.355 80.961 111.355 80.1596C111.355 79.3479 111.507 78.6315 111.813 78.0105C112.118 77.3861 112.548 76.8987 113.103 76.5483C113.658 76.198 114.312 76.0228 115.065 76.0228C115.672 76.0228 116.213 76.1355 116.688 76.361C117.164 76.583 117.547 76.8953 117.838 77.2977C118.133 77.7001 118.308 78.1701 118.364 78.7078H116.85C116.766 78.3332 116.576 78.0105 116.277 77.74C115.982 77.4694 115.587 77.3341 115.091 77.3341C114.657 77.3341 114.277 77.4486 113.951 77.6775C113.629 77.903 113.377 78.2256 113.197 78.6454C113.016 79.0617 112.926 79.5543 112.926 80.1232C112.926 80.706 113.015 81.209 113.192 81.6322C113.368 82.0554 113.618 82.3833 113.941 82.6157C114.267 82.8481 114.65 82.9643 115.091 82.9643C115.386 82.9643 115.653 82.9106 115.892 82.803C116.135 82.692 116.338 82.5342 116.501 82.3295C116.668 82.1248 116.784 81.8785 116.85 81.5906H118.364C118.308 82.1075 118.14 82.5689 117.859 82.9747C117.578 83.3806 117.202 83.6998 116.73 83.9322C116.262 84.1646 115.712 84.2808 115.08 84.2808ZM121.809 79.3739V84.1195H120.253V73.4626H121.788V77.4277H121.887C122.074 76.9976 122.361 76.6559 122.746 76.4026C123.131 76.1494 123.634 76.0228 124.255 76.0228C124.803 76.0228 125.281 76.1355 125.691 76.361C126.104 76.5865 126.423 76.923 126.648 77.3705C126.877 77.8145 126.992 78.3696 126.992 79.0356V84.1195H125.436V79.223C125.436 78.6367 125.285 78.1823 124.983 77.8596C124.681 77.5336 124.262 77.3705 123.724 77.3705C123.356 77.3705 123.027 77.4486 122.735 77.6047C122.447 77.7608 122.22 77.9897 122.054 78.2915C121.891 78.5899 121.809 78.9507 121.809 79.3739ZM133.522 84.1195V73.4626H137.32C138.146 73.4626 138.831 73.6049 139.376 73.8893C139.924 74.1738 140.333 74.5675 140.604 75.0705C140.874 75.5701 141.01 76.1477 141.01 76.8033C141.01 77.4555 140.873 78.0296 140.598 78.5257C140.328 79.0183 139.919 79.4016 139.37 79.6757C138.826 79.9497 138.141 80.0868 137.315 80.0868H134.437V78.7026H137.169C137.69 78.7026 138.113 78.628 138.439 78.4789C138.769 78.3297 139.01 78.1129 139.162 77.8284C139.315 77.544 139.391 77.2023 139.391 76.8033C139.391 76.4009 139.313 76.0523 139.157 75.7574C139.004 75.4625 138.763 75.2371 138.434 75.081C138.108 74.9214 137.679 74.8416 137.149 74.8416H135.13V84.1195H133.522ZM138.782 79.3114L141.415 84.1195H139.584L137.003 79.3114H138.782ZM143.067 84.1195V76.1269H144.622V84.1195H143.067ZM143.852 74.8936C143.582 74.8936 143.349 74.8034 143.155 74.623C142.964 74.4392 142.869 74.2206 142.869 73.9674C142.869 73.7107 142.964 73.4921 143.155 73.3117C143.349 73.1279 143.582 73.036 143.852 73.036C144.123 73.036 144.354 73.1279 144.544 73.3117C144.739 73.4921 144.836 73.7107 144.836 73.9674C144.836 74.2206 144.739 74.4392 144.544 74.623C144.354 74.8034 144.123 74.8936 143.852 74.8936ZM149.933 84.2756C149.288 84.2756 148.712 84.1108 148.206 83.7813C147.702 83.4482 147.307 82.9747 147.019 82.3607C146.735 81.7432 146.592 81.0026 146.592 80.1388C146.592 79.275 146.736 78.5361 147.024 77.9221C147.316 77.3081 147.715 76.838 148.221 76.5119C148.728 76.1858 149.302 76.0228 149.943 76.0228C150.44 76.0228 150.838 76.106 151.14 76.2726C151.446 76.4356 151.681 76.6264 151.848 76.845C152.018 77.0635 152.15 77.256 152.243 77.4225H152.337V73.4626H153.893V84.1195H152.374V82.8759H152.243C152.15 83.0458 152.014 83.2401 151.838 83.4587C151.664 83.6772 151.425 83.868 151.119 84.031C150.814 84.1941 150.419 84.2756 149.933 84.2756ZM150.277 82.9487C150.724 82.9487 151.102 82.8308 151.411 82.5949C151.723 82.3555 151.959 82.0242 152.119 81.601C152.282 81.1778 152.363 80.6852 152.363 80.1232C152.363 79.5681 152.283 79.0825 152.124 78.6662C151.964 78.2499 151.73 77.9256 151.421 77.6931C151.113 77.4607 150.731 77.3445 150.277 77.3445C149.808 77.3445 149.418 77.4659 149.106 77.7087C148.794 77.9516 148.558 78.2829 148.398 78.7026C148.242 79.1224 148.164 79.5959 148.164 80.1232C148.164 80.6574 148.244 81.1379 148.403 81.5646C148.563 81.9913 148.799 82.3295 149.111 82.5793C149.427 82.8256 149.815 82.9487 150.277 82.9487ZM159.784 84.2808C158.996 84.2808 158.318 84.1126 157.749 83.7761C157.184 83.4361 156.747 82.9591 156.438 82.3451C156.133 81.7276 155.98 81.0043 155.98 80.1752C155.98 79.3565 156.133 78.635 156.438 78.0105C156.747 77.3861 157.177 76.8987 157.728 76.5483C158.283 76.198 158.932 76.0228 159.674 76.0228C160.125 76.0228 160.563 76.0974 160.986 76.2465C161.409 76.3957 161.789 76.6299 162.125 76.949C162.462 77.2682 162.727 77.6827 162.922 78.1927C163.116 78.6991 163.213 79.3149 163.213 80.0399V80.5915H156.859V79.4259H161.688C161.688 79.0166 161.605 78.6541 161.438 78.3384C161.272 78.0192 161.038 77.7677 160.736 77.5839C160.438 77.4 160.087 77.3081 159.685 77.3081C159.248 77.3081 158.866 77.4156 158.54 77.6307C158.217 77.8423 157.968 78.1198 157.791 78.4633C157.617 78.8032 157.531 79.1727 157.531 79.5716V80.4822C157.531 81.0165 157.624 81.4709 157.812 81.8456C158.002 82.2202 158.268 82.5064 158.608 82.7041C158.948 82.8984 159.345 82.9955 159.799 82.9955C160.094 82.9955 160.363 82.9539 160.606 82.8707C160.849 82.7839 161.059 82.6556 161.236 82.4856C161.412 82.3156 161.548 82.1057 161.641 81.856L163.114 82.1213C162.996 82.555 162.784 82.9348 162.479 83.2609C162.177 83.5835 161.798 83.835 161.34 84.0154C160.885 84.1924 160.367 84.2808 159.784 84.2808ZM165.165 84.1195V76.1269H166.668V77.3965H166.752C166.897 76.9664 167.154 76.6281 167.522 76.3818C167.893 76.1321 168.313 76.0072 168.781 76.0072C168.878 76.0072 168.993 76.0106 169.125 76.0176C169.26 76.0245 169.366 76.0332 169.442 76.0436V77.5318C169.379 77.5145 169.268 77.4954 169.109 77.4746C168.949 77.4503 168.79 77.4382 168.63 77.4382C168.262 77.4382 167.935 77.5162 167.647 77.6723C167.362 77.825 167.137 78.0383 166.97 78.3124C166.804 78.5829 166.72 78.8917 166.72 79.2386V84.1195H165.165Z" fill="#525252" style="fill:#525252;fill:color(display-p3 0.3220 0.3220 0.3220);fill-opacity:1;"/>
<rect width="195" height="45.0867" transform="translate(16.0145 102.79)" fill="white" style="fill:white;fill-opacity:1;"/>
<path d="M37.7125 119.416V116.88C37.7125 116.655 37.8015 116.44 37.9601 116.282C38.1186 116.123 38.3336 116.034 38.5578 116.034H45.3209C45.5451 116.034 45.7601 116.123 45.9186 116.282C46.0772 116.44 46.1662 116.655 46.1662 116.88V119.416H49.5477C49.7719 119.416 49.987 119.505 50.1455 119.663C50.304 119.822 50.3931 120.037 50.3931 120.261V132.096C50.3931 132.321 50.304 132.536 50.1455 132.694C49.987 132.853 49.7719 132.942 49.5477 132.942H34.331C34.1068 132.942 33.8917 132.853 33.7332 132.694C33.5747 132.536 33.4856 132.321 33.4856 132.096V120.261C33.4856 120.037 33.5747 119.822 33.7332 119.663C33.8917 119.505 34.1068 119.416 34.331 119.416H37.7125ZM45.3209 127.869H42.7847V128.715H41.094V127.869H38.5578V131.251H45.3209V127.869ZM38.5578 121.106V126.179H41.094V125.333H42.7847V126.179H45.3209V121.106H38.5578ZM36.8671 126.179V121.106H35.1763V126.179H36.8671ZM47.0116 126.179H48.7024V121.106H47.0116V126.179ZM36.8671 127.869H35.1763V131.251H36.8671V127.869ZM47.0116 127.869V131.251H48.7024V127.869H47.0116ZM39.4032 117.725V119.416H44.4755V117.725H39.4032Z" fill="#525252" style="fill:#525252;fill:color(display-p3 0.3220 0.3220 0.3220);fill-opacity:1;"/>
<path d="M66.5538 130.333H64.847L68.682 119.677H70.5397L74.3747 130.333H72.668L69.6551 121.612H69.5719L66.5538 130.333ZM66.84 126.16H72.3766V127.513H66.84V126.16ZM78.8775 130.489C78.2322 130.489 77.6564 130.325 77.1499 129.995C76.6469 129.662 76.2514 129.189 75.9635 128.575C75.679 127.957 75.5368 127.216 75.5368 126.353C75.5368 125.489 75.6808 124.75 75.9687 124.136C76.2601 123.522 76.659 123.052 77.1655 122.726C77.672 122.4 78.2461 122.237 78.8879 122.237C79.384 122.237 79.7829 122.32 80.0847 122.486C80.39 122.649 80.6259 122.84 80.7924 123.059C80.9624 123.277 81.0942 123.47 81.1878 123.636H81.2815V119.677H82.8374V130.333H81.3179V129.09H81.1878C81.0942 129.26 80.9589 129.454 80.782 129.673C80.6085 129.891 80.3692 130.082 80.0639 130.245C79.7586 130.408 79.3631 130.489 78.8775 130.489ZM79.2209 129.163C79.6684 129.163 80.0465 129.045 80.3553 128.809C80.6675 128.569 80.9034 128.238 81.063 127.815C81.226 127.392 81.3075 126.899 81.3075 126.337C81.3075 125.782 81.2277 125.296 81.0682 124.88C80.9086 124.464 80.6744 124.139 80.3657 123.907C80.0569 123.675 79.6753 123.558 79.2209 123.558C78.7526 123.558 78.3623 123.68 78.0501 123.923C77.7379 124.165 77.502 124.497 77.3424 124.916C77.1863 125.336 77.1083 125.81 77.1083 126.337C77.1083 126.871 77.1881 127.352 77.3476 127.778C77.5072 128.205 77.7431 128.543 78.0553 128.793C78.371 129.039 78.7595 129.163 79.2209 129.163ZM85.2834 130.333V122.341H86.7768V123.642H86.8757C87.0422 123.201 87.3145 122.858 87.6927 122.611C88.0708 122.362 88.5235 122.237 89.0508 122.237C89.585 122.237 90.0325 122.362 90.3933 122.611C90.7575 122.861 91.0264 123.205 91.1998 123.642H91.2831C91.4739 123.215 91.7774 122.875 92.1937 122.622C92.61 122.365 93.1061 122.237 93.6819 122.237C94.407 122.237 94.9984 122.464 95.4563 122.918C95.9177 123.373 96.1484 124.058 96.1484 124.974V130.333H94.5926V125.119C94.5926 124.578 94.4451 124.186 94.1503 123.943C93.8554 123.701 93.5033 123.579 93.0939 123.579C92.5875 123.579 92.1937 123.735 91.9127 124.047C91.6317 124.356 91.4912 124.753 91.4912 125.239V130.333H89.9406V125.021C89.9406 124.587 89.8053 124.238 89.5347 123.975C89.2641 123.711 88.912 123.579 88.4784 123.579C88.1835 123.579 87.9112 123.657 87.6614 123.813C87.4151 123.966 87.2157 124.179 87.063 124.453C86.9139 124.727 86.8393 125.045 86.8393 125.406V130.333H85.2834ZM98.4592 130.333V122.341H100.015V130.333H98.4592ZM99.2449 121.107C98.9743 121.107 98.7419 121.017 98.5476 120.837C98.3568 120.653 98.2614 120.434 98.2614 120.181C98.2614 119.925 98.3568 119.706 98.5476 119.526C98.7419 119.342 98.9743 119.25 99.2449 119.25C99.5155 119.25 99.7462 119.342 99.937 119.526C100.131 119.706 100.228 119.925 100.228 120.181C100.228 120.434 100.131 120.653 99.937 120.837C99.7462 121.017 99.5155 121.107 99.2449 121.107ZM103.889 125.588V130.333H102.334V122.341H103.827V123.642H103.926C104.11 123.218 104.398 122.878 104.79 122.622C105.185 122.365 105.683 122.237 106.283 122.237C106.828 122.237 107.305 122.351 107.714 122.58C108.123 122.806 108.441 123.142 108.666 123.59C108.892 124.037 109.005 124.59 109.005 125.25V130.333H107.449V125.437C107.449 124.858 107.298 124.405 106.996 124.079C106.694 123.749 106.28 123.584 105.752 123.584C105.392 123.584 105.071 123.662 104.79 123.819C104.512 123.975 104.292 124.204 104.129 124.505C103.969 124.804 103.889 125.165 103.889 125.588Z" fill="#525252" style="fill:#525252;fill:color(display-p3 0.3220 0.3220 0.3220);fill-opacity:1;"/>
</g>
<rect x="16.4855" y="10.8333" width="194.058" height="136.572" rx="15.3093" stroke="#F6F6F6" style="stroke:#F6F6F6;stroke:color(display-p3 0.9647 0.9647 0.9647);stroke-opacity:1;" stroke-width="0.942029"/>
</g>
<defs>
<filter id="filter0_d_5873_13289" x="3.33786e-05" y="-1.43051e-05" width="219.493" height="162.007" filterUnits="userSpaceOnUse" color-interpolation-filters="sRGB">
<feFlood flood-opacity="0" result="BackgroundImageFix"/>
<feColorMatrix in="SourceAlpha" type="matrix" values="0 0 0 0 0 0 0 0 0 0 0 0 0 0 0 0 0 0 127 0" result="hardAlpha"/>
<feOffset dx="-3.76812" dy="1.88406"/>
<feGaussianBlur stdDeviation="6.12319"/>
<feComposite in2="hardAlpha" operator="out"/>
<feColorMatrix type="matrix" values="0 0 0 0 0 0 0 0 0 0 0 0 0 0 0 0 0 0 0.12 0"/>
<feBlend mode="normal" in2="BackgroundImageFix" result="effect1_dropShadow_5873_13289"/>
<feBlend mode="normal" in="SourceGraphic" in2="effect1_dropShadow_5873_13289" result="shape"/>
</filter>
<clipPath id="clip0_5873_13289">
<rect x="16.0145" y="10.3623" width="195" height="137.514" rx="15.7803" fill="white" style="fill:white;fill-opacity:1;"/>
</clipPath>
</defs>
</svg>
